<svg xmlns="http://www.w3.org/2000/svg" viewBox="0 0 480 720" width="480" height="720" xmlns:c2pa="http://c2pa.org/manifest"><metadata><c2pa:manifest>AAAWgmp1bWIAAAAeanVtZGMycGEAEQAQgAAAqgA4m3EDYzJwYQAAABZcanVtYgAAAEdqdW1kYzJtYQARABCAAACqADibcQN1cm46YzJwYTo4OTQwZTJkNC1iYmIwLTRkYjktYmEzMS0wMWE0ZDNjOWQ1N2MAAAADl2p1bWIAAAApanVtZGMyYXMAEQAQgAAAqgA4m3EDYzJwYS5hc3NlcnRpb25zAAAAALxqdW1iAAAARGp1bWRjYm9yABEAEIAAAKoAOJtxE2MycGEuaW5ncmVkaWVudC52MwAAAAAYYzJzaMFvmmJKjw54Fm5cJsU9PVQAAABwY2JvcqNpZGM6Zm9ybWF0bWltYWdlL3N2Zyt4bWxqaW5zdGFuY2VJRHgseG1wOmlpZDpmOGRiNmU4Zi01NzEwLTRhM2UtODlmNy0xMmY2NjRjZjBmYWJscmVsYXRpb25zaGlwaHBhcmVudE9mAAAB4mp1bWIAAABBanVtZGNib3IAEQAQgAAAqgA4m3ETYzJwYS5hY3Rpb25zLnYyAAAAABhjMnNoRYEzh40IAe5JF1Ze17oQSAAAAZljYm9yomdhY3Rpb25zgqJmYWN0aW9ua2MycGEub3BlbmVkanBhcmFtZXRlcnOha2luZ3JlZGllbnRzgaJjdXJseC1zZWxmI2p1bWJmPWMycGEuYXNzZXJ0aW9ucy9jMnBhLmluZ3JlZGllbnQudjNkaGFzaFggCrv5OSrf2a2KBsgykKmq4iAczdn4XiNmgGBn9vGcE+ykZmFjdGlvbngdY29tLmFudGhyb3BpYy5jbGF1ZGUucHJvdmlkZWRqcGFyYW1ldGVyc6F4H2NvbS5hbnRocm9waWMub3JpZ2luLWNvbmZpZGVuY2VndW5rbm93bmtkZXNjcmlwdGlvbnhmQ2xhdWRlIHByb3ZpZGVkIHRoaXMgZmlsZSBhdCB0aGUgcmVxdWVzdCBvZiBhIHVzZXIgYW5kIG1heSBoYXZlIGNyZWF0ZWQgb3IgbW9kaWZpZWQgdGhlIGZpbGUgY29udGVudHMubXNvZnR3YXJlQWdlbnShZG5hbWVmQ2xhdWRlcmFsbEFjdGlvbnNJbmNsdWRlZPUAAADIanVtYgAAAEBqdW1kY2JvcgARABCAAACqADibcRNjMnBhLmhhc2guZGF0YQAAAAAYYzJzaKWxZgZgPuAzbg2MHzLP4CQAAACAY2JvcqVjYWxnZnNoYTI1NmNwYWRNAAAAAAAAAAAAAAAAAGRoYXNoWCDs8MwE6uzTzguhMNHUiHoMt5Ky2dkeW9cIPOwwsnOEqmRuYW1lbmp1bWJmIG1hbmlmZXN0amV4Y2x1c2lvbnOBomVzdGFydBiWZmxlbmd0aBkeBAAAAj5qdW1iAAAAJ2p1bWRjMmNsABEAEIAAAKoAOJtxA2MycGEuY2xhaW0udjIAAAACD2Nib3KlY2FsZ2ZzaGEyNTZpc2lnbmF0dXJleE1zZWxmI2p1bWJmPS9jMnBhL3VybjpjMnBhOjg5NDBlMmQ0LWJiYjAtNGRiOS1iYTMxLTAxYTRkM2M5ZDU3Yy9jMnBhLnNpZ25hdHVyZWppbnN0YW5jZUlEeCx4bXA6aWlkOmVjOWUyOTU2LThmNDMtNDRlZi1hYTBiLWQ5NDUxNTUwMTBmZXJjcmVhdGVkX2Fzc2VydGlvbnODomN1cmx4LXNlbGYjanVtYmY9YzJwYS5hc3NlcnRpb25zL2MycGEuaW5ncmVkaWVudC52M2RoYXNoWCAKu/k5Kt/ZrYoGyDKQqariIBzN2fheI2aAYGf28ZwT7KJjdXJseCpzZWxmI2p1bWJmPWMycGEuYXNzZXJ0aW9ucy9jMnBhLmFjdGlvbnMudjJkaGFzaFggyAsYcVe5l4UJ3NtD+7XO96nKnA87oESI43u4Q1/ebOeiY3VybHgpc2VsZiNqdW1iZj1jMnBhLmFzc2VydGlvbnMvYzJwYS5oYXNoLmRhdGFkaGFzaFgg3CcLlixXnnyymYjm6oLz6kHj4v/w/gG7xdZiVb3MmLh0Y2xhaW1fZ2VuZXJhdG9yX2luZm+jZG5hbWVvQW50aHJvcGljIEZpbGVzZ3ZlcnNpb25lMS4wLjBrc3BlY1ZlcnNpb25lMi40LjAAABA4anVtYgAAAChqdW1kYzJjcwARABCAAACqADibcQNjMnBhLnNpZ25hdHVyZQAAABAIY2JvctKEWQISogEmGCFZAgowggIGMIIBjaADAgECAhRA5aAK7sI50L64g/oGQgU9Z1UTADAKBggqhkjOPQQDAzBJMRcwFQYDVQQKEw5BbnRocm9waWMsIFBCQzEuMCwGA1UEAxMlQW50aHJvcGljIENvbnRlbnQgQ3JlZGVudGlhbHMgUm9vdCBDQTAeFw0yNjA4MDcxODQzNTZaFw0yODA4MDYxOTQzNTZaMEQxFzAVBgNVBAoTDkFudGhyb3BpYywgUEJDMSkwJwYDVQQDEyBBbnRocm9waWMgQ2xhdWRlIENvbnRlbnQgU2lnbmluZzBZMBMGByqGSM49AgEGCCqGSM49AwEHA0IABJh6CmvLUBgFFNU0vUKlOVtE6djd17L5SuwX0LemFisBM3dkd/3cyjxFA3Qo5S46fX0/ihY0VZ7mfb9KF703t5OjWDBWMA4GA1UdDwEB/wQEAwIHgDAVBgNVHSUEDjAMBgorBgEEAYPoXgIBMAwGA1UdEwEB/wQCMAAwHwYDVR0jBBgwFoAUzlHiBIFOZFsj+OPEz5o+nMHXXMIwCgYIKoZIzj0EAwMDZwAwZAIwMXMdFJ4BetLLVY7ORuE9noqbbAZOZn/aArXyTwFAZfKrPzxF2vPoJNf1+UCdg1XGAjBwX1zd9WGqYkqmL5SFqw1QySjr1zJfpJM9+1rdDwSPLMOPOjKuiXjoU/pUUeG9RwmhY3BhZFkNngAAAAAAAAAAAAAAAAAAAAAAAAAAAAAAAAAAAAAAAAAAAAAAAAAAAAAAAAAAAAAAAAAAAAAAAAAAAAAAAAAAAAAAAAAAAAAAAAAAAAAAAAAAAAAAAAAAAAAAAAAAAAAAAAAAAAAAAAAAAAAAAAAAAAAAAAAAAAAAAAAAAAAAAAAAAAAAAAAAAAAAAAAAAAAAAAAAAAAAAAAAAAAAAAAAAAAAAAAAAAAAAAAAAAAAAAAAAAAAAAAAAAAAAAAAAAAAAAAAAAAAAAAAAAAAAAAAAAAAAAAAAAAAAAAAAAAAAAAAAAAAAAAAAAAAAAAAAAAAAAAAAAAAAAAAAAAAAAAAAAAAAAAAAAAAAAAAAAAAAAAAAAAAAAAAAAAAAAAAAAAAAAAAAAAAAAAAAAAAAAAAAAAAAAAAAAAAAAAAAAAAAAAAAAAAAAAAAAAAAAAAAAAAAAAAAAAAAAAAAAAAAAAAAAAAAAAAAAAAAAAAAAAAAAAAAAAAAAAAAAAAAAAAAAAAAAAAAAAAAAAAAAAAAAAAAAAAAAAAAAAAAAAAAAAAAAAAAAAAAAAAAAAAAAAAAAAAAAAAAAAAAAAAAAAAAAAAAAAAAAAAAAAAAAAAAAAAAAAAAAAAAAAAAAAAAAAAAAAAAAAAAAAAAAAAAAAAAAAAAAAAAAAAAAAAAAAAAAAAAAAAAAAAAAAAAAAAAAAAAAAAAAAAAAAAAAAAAAAAAAAAAAAAAAAAAAAAAAAAAAAAAAAAAAAAAAAAAAAAAAAAAAAAAAAAAAAAAAAAAAAAAAAAAAAAAAAAAAAAAAAAAAAAAAAAAAAAAAAAAAAAAAAAAAAAAAAAAAAAAAAAAAAAAAAAAAAAAAAAAAAAAAAAAAAAAAAAAAAAAAAAAAAAAAAAAAAAAAAAAAAAAAAAAAAAAAAAAAAAAAAAAAAAAAAAAAAAAAAAAAAAAAAAAAAAAAAAAAAAAAAAAAAAAAAAAAAAAAAAAAAAAAAAAAAAAAAAAAAAAAAAAAAAAAAAAAAAAAAAAAAAAAAAAAAAAAAAAAAAAAAAAAAAAAAAAAAAAAAAAAAAAAAAAAAAAAAAAAAAAAAAAAAAAAAAAAAAAAAAAAAAAAAAAAAAAAAAAAAAAAAAAAAAAAAAAAAAAAAAAAAAAAAAAAAAAAAAAAAAAAAAAAAAAAAAAAAAAAAAAAAAAAAAAAAAAAAAAAAAAAAAAAAAAAAAAAAAAAAAAAAAAAAAAAAAAAAAAAAAAAAAAAAAAAAAAAAAAAAAAAAAAAAAAAAAAAAAAAAAAAAAAAAAAAAAAAAAAAAAAAAAAAAAAAAAAAAAAAAAAAAAAAAAAAAAAAAAAAAAAAAAAAAAAAAAAAAAAAAAAAAAAAAAAAAAAAAAAAAAAAAAAAAAAAAAAAAAAAAAAAAAAAAAAAAAAAAAAAAAAAAAAAAAAAAAAAAAAAAAAAAAAAAAAAAAAAAAAAAAAAAAAAAAAAAAAAAAAAAAAAAAAAAAAAAAAAAAAAAAAAAAAAAAAAAAAAAAAAAAAAAAAAAAAAAAAAAAAAAAAAAAAAAAAAAAAAAAAAAAAAAAAAAAAAAAAAAAAAAAAAAAAAAAAAAAAAAAAAAAAAAAAAAAAAAAAAAAAAAAAAAAAAAAAAAAAAAAAAAAAAAAAAAAAAAAAAAAAAAAAAAAAAAAAAAAAAAAAAAAAAAAAAAAAAAAAAAAAAAAAAAAAAAAAAAAAAAAAAAAAAAAAAAAAAAAAAAAAAAAAAAAAAAAAAAAAAAAAAAAAAAAAAAAAAAAAAAAAAAAAAAAAAAAAAAAAAAAAAAAAAAAAAAAAAAAAAAAAAAAAAAAAAAAAAAAAAAAAAAAAAAAAAAAAAAAAAAAAAAAAAAAAAAAAAAAAAAAAAAAAAAAAAAAAAAAAAAAAAAAAAAAAAAAAAAAAAAAAAAAAAAAAAAAAAAAAAAAAAAAAAAAAAAAAAAAAAAAAAAAAAAAAAAAAAAAAAAAAAAAAAAAAAAAAAAAAAAAAAAAAAAAAAAAAAAAAAAAAAAAAAAAAAAAAAAAAAAAAAAAAAAAAAAAAAAAAAAAAAAAAAAAAAAAAAAAAAAAAAAAAAAAAAAAAAAAAAAAAAAAAAAAAAAAAAAAAAAAAAAAAAAAAAAAAAAAAAAAAAAAAAAAAAAAAAAAAAAAAAAAAAAAAAAAAAAAAAAAAAAAAAAAAAAAAAAAAAAAAAAAAAAAAAAAAAAAAAAAAAAAAAAAAAAAAAAAAAAAAAAAAAAAAAAAAAAAAAAAAAAAAAAAAAAAAAAAAAAAAAAAAAAAAAAAAAAAAAAAAAAAAAAAAAAAAAAAAAAAAAAAAAAAAAAAAAAAAAAAAAAAAAAAAAAAAAAAAAAAAAAAAAAAAAAAAAAAAAAAAAAAAAAAAAAAAAAAAAAAAAAAAAAAAAAAAAAAAAAAAAAAAAAAAAAAAAAAAAAAAAAAAAAAAAAAAAAAAAAAAAAAAAAAAAAAAAAAAAAAAAAAAAAAAAAAAAAAAAAAAAAAAAAAAAAAAAAAAAAAAAAAAAAAAAAAAAAAAAAAAAAAAAAAAAAAAAAAAAAAAAAAAAAAAAAAAAAAAAAAAAAAAAAAAAAAAAAAAAAAAAAAAAAAAAAAAAAAAAAAAAAAAAAAAAAAAAAAAAAAAAAAAAAAAAAAAAAAAAAAAAAAAAAAAAAAAAAAAAAAAAAAAAAAAAAAAAAAAAAAAAAAAAAAAAAAAAAAAAAAAAAAAAAAAAAAAAAAAAAAAAAAAAAAAAAAAAAAAAAAAAAAAAAAAAAAAAAAAAAAAAAAAAAAAAAAAAAAAAAAAAAAAAAAAAAAAAAAAAAAAAAAAAAAAAAAAAAAAAAAAAAAAAAAAAAAAAAAAAAAAAAAAAAAAAAAAAAAAAAAAAAAAAAAAAAAAAAAAAAAAAAAAAAAAAAAAAAAAAAAAAAAAAAAAAAAAAAAAAAAAAAAAAAAAAAAAAAAAAAAAAAAAAAAAAAAAAAAAAAAAAAAAAAAAAAAAAAAAAAAAAAAAAAAAAAAAAAAAAAAAAAAAAAAAAAAAAAAAAAAAAAAAAAAAAAAAAAAAAAAAAAAAAAAAAAAAAAAAAAAAAAAAAAAAAAAAAAAAAAAAAAAAAAAAAAAAAAAAAAAAAAAAAAAAAAAAAAAAAAAAAAAAAAAAAAAAAAAAAAAAAAAAAAAAAAAAAAAAAAAAAAAAAAAAAAAAAAAAAAAAAAAAAAAAAAAAAAAAAAAAAAAAAAAAAAAAAAAAAAAAAAAAAAAAAAAAAAAAAAAAAAAAAAAAAAAAAAAAAAAAAAAAAAAAAAAAAAAAAAAAAAAAAAAAAAAAAAAAAAAAAAAAAAAAAAAAAAAAAAAAAAAAAAAAAAAAAAAAAAAAAAAAAAAAAAAAAAAAAAAAAAAAAAAAAAAAAAAAAAAAAAAAAAAAAAAAAAAAAAAAAAAAAAAAAAAAAAAAAAAAAAAAAAAAAAAAAAAAAAAAAAAAAAAAAAAAAAAAAAAAAAAAAAAAAAAAAAAAAAAAAAAAAAAAAAAAAAAAAAAAAAAAAAAAAAAAAAAAAAAAAAAAAAAAAAAAAAAAAAAAAAAAAAAAAAAAAAAAAAAAAAAAAAAAAAAAAAAAAAAAAAAAAAAAAAAAAAAAAAAAAAAAAAAAAAAAAAAAAAAAAAAAAAAAAAAAAAAAAAAAAAAAAAAAAAAAAAAAAAAAAAAAAAAAAAAAAAAAAAAAAAAAAAAAAAAAAAAAAAAAAAAAAAAAAAAAAAAAAAAAAAAAAAAAAAAAAAAAAAAAAAAAAAAAAAAAAAAAAAAAAAAAAAAAAAAAAAAAAAAAAAAAAAAAAAAAAAAAAAAAAAAAAAAAAAAAAAAAAAAAAAAAAAAAAAAAAAAAAAAAAAAAAAAAAAAAAAAAAAAAAAAAAAAAAAAAAAAAAAAAAAAAAAAAAAAAAAAAAAAAAAAAAAAAAAAAAAAAAAAAAAAAAAAAAAAAAAAAAAAAAAAAAAAAAAAAAAAAAAAAAAAAAAAAAAAAAAAAAAAAAAAAAAAAAAAAAAAAAAAAAAAAAAAAAAAAAAAAAAAAAAAAAAAAAAAAAAAAAAAAAAAAAAAAAAAAAAAAAAAAAAAAAAAAAAAAAAAAAAAAAAAAAAAAAAAAAAAAAAAAAAAAAAAAAAAAAAAAAAAAAAAAAAAAAAAAAAAAAAAAAAAAAAAAAAAAAAAAAAAAAAAAAAAAAAAAAAAAAAAAAAAAAAAAAAAAAAAAAAAAAAAAAAAAAAAAAAAAAAAAAAAAAAAAAAAAAAAAAAAAAAAAAAAAAAAAAAAAAAAAAAAAAAAAAAAAAAAAAAAAAAAAAAAAAAAAAAAAAAAAAAAAAAAAAAAAAAAAAAAAAAAAAAAAAAAAAAAAAAAAAAAAAAAAAAAAAAAAAAAAAAAAAAAAAAAAAAAAAAAAAAAAAAAAAAAAAAAAAAAAAAAAAAAAAAAAAAAAAAAAAAAAAAAAAAAAAAAAAAAAAAAAAAAAAAAAAAAAAAAAAAAAAAAAAAAAAAAAAAAAAAAAAAAAAAAAAAAAAAAAAAAAAAAAAAAAAAAAAAAAAAAAAAAAAAAAAAAAAAAAAAAAAAAAAAAAAAAAAAAAAAAAAAAAAAAAAAAAAAAAAAAAAAAAAAAAAAAAAAAAAAAAAAAAAAAAAAAAAAAAAAAAAAAAAAAAPZYQFLScZm8IN1GKUzy6rWhqeKVCox6Dg2KMH1QPzybKt3QdPoM/b7QoRWM6v21l/N6L/FXXqsyTLJ7Ys7i97qLstM=</c2pa:manifest></metadata>
  <defs>
    <linearGradient id="sky" x1="0" y1="0" x2="0" y2="1">
      <stop offset="0" stop-color="#1a0306"/>
      <stop offset="0.2" stop-color="#6a0d0b"/>
      <stop offset="0.4" stop-color="#c42a12"/>
      <stop offset="0.632" stop-color="#f5602a"/>
      <stop offset="1" stop-color="#f0561c"/>
    </linearGradient>
    <radialGradient id="glow" cx="0.5" cy="0.5" r="0.5">
      <stop offset="0" stop-color="#ffc24a" stop-opacity="0.95"/>
      <stop offset="0.5" stop-color="#ff6a1a" stop-opacity="0.45"/>
      <stop offset="1" stop-color="#ff3a10" stop-opacity="0"/>
    </radialGradient>
    <linearGradient id="road" x1="0" y1="0" x2="0" y2="1">
      <stop offset="0" stop-color="#5a1509"/>
      <stop offset="0.35" stop-color="#1a0709"/>
      <stop offset="1" stop-color="#050203"/>
    </linearGradient>
  </defs>
  <rect width="480" height="720" fill="url(#sky)"/>
  <ellipse cx="240" cy="445" rx="300" ry="190" fill="url(#glow)"/>
  <circle cx="166.0" cy="192.2" r="1.7" fill="#ffb347" opacity="0.39"/>
  <circle cx="255.1" cy="252.4" r="0.9" fill="#ffb347" opacity="0.60"/>
  <circle cx="45.7" cy="271.4" r="0.9" fill="#ffb347" opacity="0.40"/>
  <circle cx="208.3" cy="381.5" r="1.0" fill="#ffb347" opacity="0.46"/>
  <circle cx="293.5" cy="415.4" r="1.6" fill="#ffb347" opacity="0.55"/>
  <circle cx="440.0" cy="163.0" r="2.0" fill="#ffb347" opacity="0.49"/>
  <circle cx="90.6" cy="183.0" r="1.2" fill="#ffb347" opacity="0.76"/>
  <circle cx="105.9" cy="312.8" r="1.7" fill="#ffb347" opacity="0.54"/>
  <circle cx="260.1" cy="167.6" r="0.9" fill="#ffb347" opacity="0.45"/>
  <circle cx="315.8" cy="269.7" r="1.2" fill="#ffb347" opacity="0.64"/>
  <circle cx="220.3" cy="233.9" r="1.9" fill="#ffb347" opacity="0.70"/>
  <circle cx="132.5" cy="310.8" r="1.5" fill="#ffb347" opacity="0.79"/>
  <circle cx="336.4" cy="230.6" r="2.2" fill="#ffb347" opacity="0.41"/>
  <circle cx="205.6" cy="362.0" r="1.0" fill="#ffb347" opacity="0.59"/>
  <circle cx="46.5" cy="337.1" r="1.9" fill="#ffb347" opacity="0.64"/>
  <circle cx="397.7" cy="237.8" r="1.8" fill="#ffb347" opacity="0.65"/>
  <circle cx="273.6" cy="277.7" r="2.0" fill="#ffb347" opacity="0.82"/>
  <circle cx="229.1" cy="336.0" r="0.9" fill="#ffb347" opacity="0.70"/>
  <circle cx="301.8" cy="428.1" r="2.0" fill="#ffb347" opacity="0.49"/>
  <circle cx="192.0" cy="337.2" r="0.8" fill="#ffb347" opacity="0.58"/>
  <circle cx="100.6" cy="182.8" r="0.9" fill="#ffb347" opacity="0.73"/>
  <circle cx="84.3" cy="219.3" r="1.3" fill="#ffb347" opacity="0.79"/>
  <circle cx="63.8" cy="275.8" r="1.6" fill="#ffb347" opacity="0.79"/>
  <circle cx="374.1" cy="391.9" r="1.2" fill="#ffb347" opacity="0.56"/>
  <circle cx="180.7" cy="397.6" r="2.1" fill="#ffb347" opacity="0.43"/>
  <circle cx="104.0" cy="214.9" r="1.1" fill="#ffb347" opacity="0.59"/>
  <circle cx="277.4" cy="223.6" r="0.8" fill="#ffb347" opacity="0.56"/>
  <circle cx="185.1" cy="308.6" r="2.1" fill="#ffb347" opacity="0.70"/>
  <circle cx="246.5" cy="322.9" r="1.7" fill="#ffb347" opacity="0.38"/>
  <circle cx="407.8" cy="368.4" r="2.0" fill="#ffb347" opacity="0.75"/>
  <circle cx="194.8" cy="261.7" r="0.9" fill="#ffb347" opacity="0.67"/>
  <circle cx="56.1" cy="168.9" r="1.1" fill="#ffb347" opacity="0.43"/>
  <circle cx="172.8" cy="164.7" r="0.8" fill="#ffb347" opacity="0.43"/>
  <circle cx="72.6" cy="251.8" r="0.8" fill="#ffb347" opacity="0.79"/>
  <circle cx="287.9" cy="191.6" r="1.2" fill="#ffb347" opacity="0.52"/>
  <circle cx="182.9" cy="184.4" r="2.0" fill="#ffb347" opacity="0.85"/>
  <circle cx="225.7" cy="285.5" r="0.9" fill="#ffb347" opacity="0.40"/>
  <circle cx="173.9" cy="224.1" r="2.0" fill="#ffb347" opacity="0.43"/>
  <path d="M173.0 437.0 C173.0 396.5 187.3 387.5 191.7 347.0 C194.1 387.5 207.0 399.2 207.0 437.0 Z" fill="#ff4a14"/>
  <path d="M178.4 437.0 C178.4 409.5 188.2 403.3 191.2 375.8 C192.8 403.3 201.6 411.3 201.6 437.0 Z" fill="#ff9a2a"/>
  <path d="M183.9 437.0 C183.9 422.4 189.0 419.2 190.6 404.6 C191.5 419.2 196.1 423.4 196.1 437.0 Z" fill="#ffe27a"/>
  <path d="M209.0 437.0 C209.0 378.5 228.3 365.5 234.3 307.0 C237.5 365.5 255.0 382.4 255.0 437.0 Z" fill="#ff4a14"/>
  <path d="M216.4 437.0 C216.4 397.2 229.5 388.4 233.6 348.6 C235.8 388.4 247.6 399.9 247.6 437.0 Z" fill="#ff9a2a"/>
  <path d="M223.7 437.0 C223.7 415.9 230.7 411.3 232.8 390.2 C234.0 411.3 240.3 417.3 240.3 437.0 Z" fill="#ffe27a"/>
  <path d="M248.0 437.0 C248.0 389.8 264.8 379.2 270.0 332.0 C272.8 379.2 288.0 392.9 288.0 437.0 Z" fill="#ff4a14"/>
  <path d="M254.4 437.0 C254.4 404.9 265.8 397.7 269.4 365.6 C271.3 397.7 281.6 407.0 281.6 437.0 Z" fill="#ff9a2a"/>
  <path d="M260.8 437.0 C260.8 420.0 266.8 416.2 268.7 399.2 C269.7 416.2 275.2 421.1 275.2 437.0 Z" fill="#ffe27a"/>
  <path d="M285.0 437.0 C285.0 401.0 297.6 393.0 301.5 357.0 C303.6 393.0 315.0 403.4 315.0 437.0 Z" fill="#ff4a14"/>
  <path d="M289.8 437.0 C289.8 412.5 298.4 407.1 301.0 382.6 C302.4 407.1 310.2 414.2 310.2 437.0 Z" fill="#ff9a2a"/>
  <path d="M294.6 437.0 C294.6 424.0 299.1 421.2 300.5 408.2 C301.3 421.2 305.4 424.9 305.4 437.0 Z" fill="#ffe27a"/>
  <rect x="168.0" y="395.4" width="9.3" height="61.6" fill="#070203"/>
  <rect x="178.8" y="414.9" width="10.6" height="42.1" fill="#070203"/>
  <rect x="189.5" y="394.0" width="14.8" height="63.0" fill="#070203"/>
  <rect x="206.9" y="428.5" width="16.7" height="28.5" fill="#070203"/>
  <rect x="224.7" y="403.9" width="10.8" height="53.1" fill="#070203"/>
  <rect x="237.1" y="425.2" width="17.6" height="31.8" fill="#070203"/>
  <rect x="255.4" y="393.7" width="17.9" height="63.3" fill="#070203"/>
  <rect x="275.8" y="401.7" width="17.9" height="55.3" fill="#070203"/>
  <rect x="295.9" y="416.2" width="11.5" height="40.8" fill="#070203"/>
  <rect x="308.5" y="439.7" width="9.3" height="17.3" fill="#070203"/>
  <path d="M167.8 371.5 C167.8 346.3 178.0 340.7 181.2 315.5 C182.9 340.7 192.2 348.0 192.2 371.5 Z" fill="#ff4a14"/>
  <path d="M171.7 371.5 C171.7 354.4 178.7 350.6 180.8 333.4 C182.0 350.6 188.3 355.5 188.3 371.5 Z" fill="#ff9a2a"/>
  <path d="M175.6 371.5 C175.6 362.4 179.3 360.4 180.4 351.3 C181.1 360.4 184.4 363.0 184.4 371.5 Z" fill="#ffe27a"/>
  <path d="M215.6 447.7 C215.6 430.4 223.1 426.5 225.4 409.2 C226.6 426.5 233.4 431.5 233.4 447.7 Z" fill="#ff4a14"/>
  <path d="M218.5 447.7 C218.5 435.9 223.5 433.3 225.1 421.5 C225.9 433.3 230.5 436.7 230.5 447.7 Z" fill="#ff9a2a"/>
  <path d="M221.3 447.7 C221.3 441.5 224.0 440.1 224.8 433.8 C225.3 440.1 227.7 441.9 227.7 447.7 Z" fill="#ffe27a"/>
  <path d="M364.7 289.0 C364.7 247.2 380.9 237.8 385.9 196.0 C388.6 237.8 403.3 249.9 403.3 289.0 Z" fill="#ff4a14"/>
  <path d="M370.9 289.0 C370.9 260.5 381.9 254.2 385.3 225.8 C387.2 254.2 397.1 262.4 397.1 289.0 Z" fill="#ff9a2a"/>
  <path d="M377.0 289.0 C377.0 273.9 382.9 270.6 384.7 255.5 C385.7 270.6 391.0 274.9 391.0 289.0 Z" fill="#ffe27a"/>
  <path d="M287.8 399.0 C287.8 373.8 298.0 368.2 301.2 343.0 C302.9 368.2 312.2 375.5 312.2 399.0 Z" fill="#ff4a14"/>
  <path d="M291.7 399.0 C291.7 381.9 298.7 378.1 300.8 360.9 C302.0 378.1 308.3 383.0 308.3 399.0 Z" fill="#ff9a2a"/>
  <path d="M295.6 399.0 C295.6 389.9 299.3 387.9 300.4 378.8 C301.1 387.9 304.4 390.5 304.4 399.0 Z" fill="#ffe27a"/>
  <path d="M262.9 419.5 C262.9 399.2 271.4 394.8 274.0 374.5 C275.4 394.8 283.1 400.6 283.1 419.5 Z" fill="#ff4a14"/>
  <path d="M266.1 419.5 C266.1 405.7 271.9 402.7 273.7 388.9 C274.6 402.7 279.9 406.6 279.9 419.5 Z" fill="#ff9a2a"/>
  <path d="M269.4 419.5 C269.4 412.2 272.4 410.6 273.4 403.3 C273.9 410.6 276.6 412.7 276.6 419.5 Z" fill="#ffe27a"/>
  <path d="M246.6 454.8 C246.6 437.5 254.1 433.6 256.4 416.3 C257.6 433.6 264.4 438.6 264.4 454.8 Z" fill="#ff4a14"/>
  <path d="M249.5 454.8 C249.5 443.0 254.5 440.4 256.1 428.6 C256.9 440.4 261.5 443.8 261.5 454.8 Z" fill="#ff9a2a"/>
  <path d="M252.3 454.8 C252.3 448.6 255.0 447.2 255.8 440.9 C256.3 447.2 258.7 449.0 258.7 454.8 Z" fill="#ffe27a"/>
  <polygon points="0,720 480,720 240,455" fill="url(#road)"/>
  <polygon points="239.8,465.6 240.2,465.6 240.3,467.9 239.7,467.9" fill="#8a2114" opacity="0.75"/>
  <polygon points="239.6,471.6 240.4,471.6 240.5,475.2 239.5,475.2" fill="#8a2114" opacity="0.75"/>
  <polygon points="239.4,480.8 240.6,480.8 240.7,486.5 239.3,486.5" fill="#8a2114" opacity="0.75"/>
  <polygon points="239.1,495.4 240.9,495.4 241.1,504.2 238.9,504.2" fill="#8a2114" opacity="0.75"/>
  <polygon points="238.6,518.0 241.4,518.0 241.7,531.9 238.3,531.9" fill="#8a2114" opacity="0.75"/>
  <polygon points="237.8,553.4 242.2,553.4 242.7,575.1 237.3,575.1" fill="#8a2114" opacity="0.75"/>
  <polygon points="236.5,608.7 243.5,608.7 244.2,642.5 235.8,642.5" fill="#8a2114" opacity="0.75"/>
  <polygon points="234.6,695.0 245.4,695.0 246.6,747.9 233.4,747.9" fill="#8a2114" opacity="0.75"/>
  <polygon points="0.0,125.0 70.0,221.2 70.0,642.7 0.0,720.0" fill="#050203"/>
  <polygon points="70.0,150.4 122.0,243.6 122.0,585.3 70.0,642.7" fill="#050203"/>
  <polygon points="122.0,307.5 164.0,360.0 164.0,538.9 122.0,585.3" fill="#050203"/>
  <polygon points="164.0,331.5 196.0,383.5 196.0,503.6 164.0,538.9" fill="#050203"/>
  <polygon points="196.0,409.2 218.0,432.1 218.0,479.3 196.0,503.6" fill="#050203"/>
  <polygon points="218.0,424.8 231.0,442.6 231.0,464.9 218.0,479.3" fill="#050203"/>
  <polygon points="231.0,448.2 238.0,453.5 238.0,457.2 231.0,464.9" fill="#050203"/>
  <polygon points="480.0,85.0 410.0,192.9 410.0,642.7 480.0,720.0" fill="#050203"/>
  <polygon points="410.0,242.5 358.0,307.5 358.0,585.3 410.0,642.7" fill="#050203"/>
  <polygon points="358.0,248.5 316.0,322.0 316.0,538.9 358.0,585.3" fill="#050203"/>
  <polygon points="316.0,366.3 284.0,403.7 284.0,503.6 316.0,538.9" fill="#050203"/>
  <polygon points="284.0,389.0 262.0,422.0 262.0,479.3 284.0,503.6" fill="#050203"/>
  <polygon points="262.0,434.8 249.0,446.8 249.0,464.9 262.0,479.3" fill="#050203"/>
  <polygon points="249.0,443.8 242.0,452.5 242.0,457.2 249.0,464.9" fill="#050203"/>
  <polygon points="30.8,426.7 44.8,428.6 44.8,455.2 30.8,455.2" fill="#ff7a2a" opacity="0.7"/>
  <polygon points="77.3,210.6 87.7,226.2 87.7,250.5 77.3,236.5" fill="#ff7a2a" opacity="0.7"/>
  <polygon points="92.9,234.0 103.3,249.6 103.3,271.4 92.9,257.4" fill="#ff7a2a" opacity="0.7"/>
  <polygon points="108.5,371.7 117.8,377.6 117.8,397.1 108.5,392.7" fill="#ff7a2a" opacity="0.7"/>
  <polygon points="108.5,409.8 117.8,413.0 117.8,432.5 108.5,430.7" fill="#ff7a2a" opacity="0.7"/>
  <polygon points="108.5,447.9 117.8,448.4 117.8,467.8 108.5,468.8" fill="#ff7a2a" opacity="0.7"/>
  <polygon points="127.9,367.6 136.3,374.2 136.3,387.6 127.9,382.2" fill="#ff7a2a" opacity="0.7"/>
  <polygon points="140.5,377.5 148.9,384.0 148.9,395.8 140.5,390.3" fill="#ff7a2a" opacity="0.7"/>
  <polygon points="140.5,400.9 148.9,405.5 148.9,417.3 140.5,413.8" fill="#ff7a2a" opacity="0.7"/>
  <polygon points="168.5,455.9 174.9,455.8 174.9,465.6 168.5,466.6" fill="#ff7a2a" opacity="0.7"/>
  <polygon points="187.7,441.4 193.4,442.9 193.4,449.9 187.7,449.2" fill="#ff7a2a" opacity="0.7"/>
  <polygon points="199.1,421.2 203.5,424.8 203.5,429.1 199.1,426.0" fill="#ff7a2a" opacity="0.7"/>
  <polygon points="199.1,438.7 203.5,440.5 203.5,444.8 199.1,443.5" fill="#ff7a2a" opacity="0.7"/>
  <polygon points="205.7,456.1 210.1,455.9 210.1,459.5 205.7,460.1" fill="#ff7a2a" opacity="0.7"/>
  <polygon points="227.6,453.3 230.0,453.6 230.0,455.0 227.6,455.0" fill="#ff7a2a" opacity="0.7"/>
  <polygon points="227.6,456.4 230.0,456.1 230.0,457.5 227.6,458.1" fill="#ff7a2a" opacity="0.7"/>
  <polygon points="232.0,450.5 233.4,451.3 233.4,451.9 232.0,451.3" fill="#ff7a2a" opacity="0.7"/>
  <polygon points="232.0,453.4 233.4,453.7 233.4,454.4 232.0,454.3" fill="#ff7a2a" opacity="0.7"/>
  <polygon points="234.1,451.7 235.5,452.4 235.5,452.9 234.1,452.3" fill="#ff7a2a" opacity="0.7"/>
  <polygon points="234.1,455.0 235.5,455.0 235.5,455.4 234.1,455.6" fill="#ff7a2a" opacity="0.7"/>
  <polygon points="470.2,161.0 456.2,178.9 456.2,210.4 470.2,194.5" fill="#ff7a2a" opacity="0.7"/>
  <polygon points="470.2,404.6 456.2,407.7 456.2,439.2 470.2,438.1" fill="#ff7a2a" opacity="0.7"/>
  <polygon points="449.2,243.2 435.2,257.4 435.2,285.8 449.2,273.6" fill="#ff7a2a" opacity="0.7"/>
  <polygon points="449.2,409.2 435.2,412.3 435.2,440.7 449.2,439.7" fill="#ff7a2a" opacity="0.7"/>
  <polygon points="428.2,314.2 415.6,323.7 415.6,349.2 428.2,341.6" fill="#ff7a2a" opacity="0.7"/>
  <polygon points="402.7,289.9 392.3,300.5 392.3,320.2 402.7,311.0" fill="#ff7a2a" opacity="0.7"/>
  <polygon points="402.7,366.5 392.3,372.2 392.3,391.9 402.7,387.6" fill="#ff7a2a" opacity="0.7"/>
  <polygon points="402.7,481.4 392.3,479.8 392.3,499.5 402.7,502.5" fill="#ff7a2a" opacity="0.7"/>
  <polygon points="387.1,444.3 376.7,445.0 376.7,462.7 387.1,463.3" fill="#ff7a2a" opacity="0.7"/>
  <polygon points="371.5,383.5 362.2,388.6 362.2,404.4 371.5,400.5" fill="#ff7a2a" opacity="0.7"/>
  <polygon points="371.5,414.4 362.2,417.3 362.2,433.2 371.5,431.5" fill="#ff7a2a" opacity="0.7"/>
  <polygon points="352.1,386.8 343.7,391.9 343.7,408.2 352.1,404.4" fill="#ff7a2a" opacity="0.7"/>
  <polygon points="352.1,450.8 343.7,451.1 343.7,467.4 352.1,468.4" fill="#ff7a2a" opacity="0.7"/>
  <polygon points="326.9,327.7 319.4,338.8 319.4,351.2 326.9,341.3" fill="#ff7a2a" opacity="0.7"/>
  <polygon points="326.9,402.1 319.4,406.7 319.4,419.2 326.9,415.8" fill="#ff7a2a" opacity="0.7"/>
  <polygon points="326.9,426.9 319.4,429.4 319.4,441.8 326.9,440.6" fill="#ff7a2a" opacity="0.7"/>
  <polygon points="326.9,451.7 319.4,452.0 319.4,464.5 326.9,465.4" fill="#ff7a2a" opacity="0.7"/>
  <polygon points="301.9,396.8 295.5,402.8 295.5,409.8 301.9,404.6" fill="#ff7a2a" opacity="0.7"/>
  <polygon points="301.9,424.9 295.5,428.0 295.5,435.0 301.9,432.7" fill="#ff7a2a" opacity="0.7"/>
  <polygon points="301.9,453.1 295.5,453.3 295.5,460.2 301.9,460.8" fill="#ff7a2a" opacity="0.7"/>
  <polygon points="292.3,417.7 286.6,421.8 286.6,427.6 292.3,424.3" fill="#ff7a2a" opacity="0.7"/>
  <polygon points="292.3,453.4 286.6,453.5 286.6,459.4 292.3,459.9" fill="#ff7a2a" opacity="0.7"/>
  <polygon points="267.7,420.6 263.8,425.5 263.8,429.0 267.7,424.6" fill="#ff7a2a" opacity="0.7"/>
  <polygon points="267.7,427.9 263.8,431.7 263.8,435.1 267.7,431.8" fill="#ff7a2a" opacity="0.7"/>
  <polygon points="267.7,435.1 263.8,437.9 263.8,441.3 267.7,439.0" fill="#ff7a2a" opacity="0.7"/>
  <polygon points="267.7,456.7 263.8,456.5 263.8,459.9 267.7,460.7" fill="#ff7a2a" opacity="0.7"/>
  <polygon points="256.3,446.7 253.7,448.0 253.7,449.5 256.3,448.5" fill="#ff7a2a" opacity="0.7"/>
  <polygon points="252.4,458.7 250.0,458.0 250.0,459.1 252.4,460.0" fill="#ff7a2a" opacity="0.7"/>
  <polygon points="248.0,454.4 246.6,454.5 246.6,455.4 248.0,455.5" fill="#ff7a2a" opacity="0.7"/>
  <polygon points="245.9,449.0 244.5,450.4 244.5,451.0 245.9,449.8" fill="#ff7a2a" opacity="0.7"/>
  <polygon points="245.9,451.8 244.5,452.5 244.5,453.1 245.9,452.5" fill="#ff7a2a" opacity="0.7"/>
  <polygon points="245.9,453.2 244.5,453.6 244.5,454.2 245.9,453.9" fill="#ff7a2a" opacity="0.7"/>
  <rect x="22" y="22" width="436" height="676" fill="none" stroke="#ff8a5a" stroke-opacity="0.4" stroke-width="1.5"/>
  <text x="240" y="112" text-anchor="middle" fill="#ff2b20" stroke="#170304" stroke-width="1.5" paint-order="stroke" font-family="Georgia, serif" font-weight="bold" font-size="54" letter-spacing="5">REDSHIFT</text>
</svg>
